PathFileType	3	(X/Y/Z)	C:\Users\koon_\Desktop\
DataRate	CameraRate	NumFrames	NumMarkers	Units	OrigDataRate	OrigDataStartFrame	OrigNumFrames
100.0	100.0	8	27	mm	100.0	2066	3304	
Frame#	Time	GM:LFHD			GM:RFHD			GM:LBHD			GM:RBHD			GM:C7			GM:T10			GM:CLAV			GM:STRN			GM:RBAK			GM:LSHO			GM:LUPA			GM:LELB			GM:LFRA			GM:LWRA			GM:LWRB			GM:LFIN			GM:RSHO			GM:RUPA			GM:RELB			GM:RFRA			GM:RWRA			GM:RWRB			GM:RFIN			GM:LASI			GM:RASI			GM:LPSI			GM:RPSI			
		X1	Y1	Z1	X2	Y2	Z2	X3	Y3	Z3	X4	Y4	Z4	X5	Y5	Z5	X6	Y6	Z6	X7	Y7	Z7	X8	Y8	Z8	X9	Y9	Z9	X10	Y10	Z10	X11	Y11	Z11	X12	Y12	Z12	X13	Y13	Z13	X14	Y14	Z14	X15	Y15	Z15	X16	Y16	Z16	X17	Y17	Z17	X18	Y18	Z18	X19	Y19	Z19	X20	Y20	Z20	X21	Y21	Z21	X22	Y22	Z22	X23	Y23	Z23	X24	Y24	Z24	X25	Y25	Z25	X26	Y26	Z26	X27	Y27	Z27	
2066	20.65	-303.63327	1362.3365	16.771442	-354.47668	1356.9448	-128.95634	-186.59534	1411.0264	-25.507624	-255.78189	1399.3173	-173.79425	-123.48968	1292.7056	-143.43013	5.0226903	1172.95	-231.75955	-199.86769	1147.7043	-93.960007	-158.98428	1007.7012	-116.05904	-107.49818	1226.3425	-277.60593	-106.06017	1211.4094	36.71006	-115.21546	1126.9242	103.24796	-148.71533	927.18506	152.72783	-294.45895	904.30566	156.96063	-357.50314	872.99133	175.05418	-331.4213	812.25507	180.85664	-419.1799	818.55847	214.47755	-286.47086	1202.9507	-243.69774	-387.77881	1018.6151	-275.65796	-417.09888	925.48138	-303.33801	-475.2005	936.83734	-229.5518	-559.94336	871.79968	-154.40472	-545.21924	815.3941	-174.74211	-626.40668	817.42731	-129.10622	66.221397	823.73462	-90.017639	-152.73724	825.79663	-285.8797	142.5955	866.72156	-295.3139	21.774702	837.20917	-395.81613
2067	20.66	-309.28989	1359.1439	16.421259	-359.82541	1353.5029	-129.43388	-192.45184	1408.4493	-25.661882	-261.26001	1396.4803	-174.22078	-128.38617	1290.7917	-142.92502	1.6415275	1172.1412	-230.74266	-204.10591	1145.049	-94.590233	-162.177	1005.3831	-116.99216	-111.6935	1224.8862	-276.92233	-112.54033	1208.8517	36.600838	-124.41432	1126.5134	103.10119	-162.33464	928.60309	153.9772	-308.66809	905.83978	160.40556	-370.90891	874.71576	180.03964	-344.6817	814.05811	186.66235	-432.40292	820.69501	220.6283	-290.49606	1200.9238	-243.17583	-395.67194	1019.5291	-270.66159	-426.60034	926.68091	-296.39847	-485.62259	938.62866	-223.53998	-572.17792	873.85742	-149.75206	-558.43542	817.59705	-170.90677	-639.71313	820.16571	-124.91711	64.627342	822.99847	-89.881104	-153.51755	824.75537	-286.45685	141.30942	866.72766	-294.99332	20.993244	836.93469	-395.80975
2068	20.67	-314.70477	1355.8929	16.017639	-364.93661	1350.051	-130.02605	-198.04747	1405.8613	-25.762434	-266.62085	1393.5724	-174.36349	-133.16357	1288.8442	-142.46149	-1.6981071	1171.3595	-229.79601	-208.36317	1142.3726	-95.037796	-165.28552	1003.0813	-117.7925	-115.93375	1223.3251	-276.21823	-118.69363	1206.3112	36.37719	-132.74385	1126.1444	103.19923	-175.4016	930.13898	154.97935	-320.95963	907.34845	164.31421	-383.48529	876.37457	185.00986	-357.14139	815.7735	192.1604	-444.55728	822.90887	226.88747	-294.57034	1198.8787	-242.42574	-403.19504	1020.5894	-265.45709	-435.82013	928.24487	-289.71936	-495.60895	940.58759	-217.55684	-583.97717	876.05377	-145.06271	-571.26587	819.99792	-167.23146	-652.42029	822.74359	-121.17593	63.054962	822.27051	-89.777267	-154.40707	823.71161	-287.23349	140.04453	866.62433	-294.58044	20.239576	836.66833	-395.94067
2069	20.68	-319.97842	1352.6331	15.745587	-370.01782	1346.6962	-130.25722	-203.50107	1403.3054	-25.855875	-271.82394	1390.7413	-174.59579	-137.76239	1286.9047	-142.03799	-4.997077	1170.4927	-229.00644	-212.42241	1139.6342	-95.538795	-168.28886	1000.7493	-118.70248	-120.09721	1221.7588	-275.70547	-124.61246	1203.7826	36.064838	-140.79524	1125.8499	102.91619	-187.69879	931.73315	155.81682	-333.07004	909.0412	167.78798	-395.37366	878.05798	189.84059	-368.66785	817.60382	197.61221	-455.55588	825.25232	233.38623	-298.5267	1196.9116	-241.78433	-410.37695	1021.8604	-260.37122	-444.77811	930.00299	-283.03101	-505.32413	942.86584	-211.46814	-595.23181	878.22882	-140.61275	-583.37573	822.52625	-163.6722	-664.57574	824.95654	-117.84301	61.554001	821.48663	-89.836258	-155.24403	822.7196	-287.8707	138.78146	866.50964	-294.25165	19.483957	836.3587	-396.04205
2070	20.69	-324.95847	1349.4481	15.52108	-374.88678	1343.4155	-130.61156	-208.82648	1400.7334	-25.89884	-276.87308	1388.0974	-174.84947	-142.18312	1285.0059	-141.66649	-8.228961	1169.589	-228.1882	-216.37239	1137.0406	-96.048355	-171.28745	998.52118	-119.54741	-124.21745	1220.2341	-275.28946	-130.11678	1201.3661	35.838993	-148.62454	1125.7781	102.63664	-199.06567	933.33319	156.58908	-344.70865	911.18793	170.66393	-406.17273	879.69208	194.47937	-379.12476	819.31116	202.70204	-465.20303	827.53534	239.97455	-302.37967	1195.0211	-241.04739	-417.17657	1023.2628	-255.31247	-453.31061	932.03351	-276.72949	-514.41565	944.89655	-206.06084	-606.04138	880.2572	-136.64258	-594.66724	824.82043	-160.25317	-676.04614	827.01898	-114.89919	60.225693	820.62634	-89.728386	-156.14439	821.59412	-288.52847	137.54193	866.35199	-293.99121	18.711374	835.96692	-396.09464
2071	20.7	-329.81549	1346.2908	15.318108	-379.70206	1340.1853	-130.84909	-213.85408	1398.2842	-26.002237	-281.94052	1385.3074	-174.93077	-146.42537	1283.1407	-141.29211	-11.412531	1168.7147	-227.48575	-220.17239	1134.5254	-96.496796	-174.19356	996.362	-120.39072	-128.24037	1218.738	-274.77039	-135.38246	1199.0948	35.700054	-155.10837	1125.5138	102.83305	-209.62433	934.83704	157.21353	-354.54318	912.27747	174.56374	-416.06049	881.40234	199.1734	-388.68396	820.99768	207.42062	-473.94858	829.67664	246.49405	-306.17172	1193.2949	-240.40921	-423.4808	1024.6886	-250.25165	-461.35849	934.18182	-270.70688	-523.05151	946.92804	-201.05118	-616.29889	882.21472	-132.94699	-604.89423	826.86652	-157.03998	-686.86139	829.35504	-112.55164	58.091156	819.44208	-90.701698	-157.04961	820.46613	-289.10678	136.27811	866.23151	-293.73215	17.811317	835.52631	-396.17258
2072	20.71	-334.33997	1343.1949	15.301064	-384.20255	1336.9086	-130.82484	-218.73659	1395.8623	-26.068726	-286.79709	1382.5607	-174.61708	-150.56094	1281.3794	-140.87833	-14.50584	1167.8253	-226.8414	-223.99586	1132.1581	-96.949608	-177.21208	994.32123	-121.30337	-132.10376	1217.3262	-274.33194	-140.23601	1196.7552	35.46384	-161.00816	1125.2231	102.99192	-219.13562	936.36389	158.03049	-363.4169	913.82098	177.61961	-424.87207	883.07245	203.95343	-397.24359	822.74274	211.85121	-481.75449	831.70142	252.78998	-309.80835	1191.6829	-239.63232	-429.71503	1026.2948	-245.90952	-468.99615	936.20483	-265.02695	-531.30701	949.0116	-196.4429	-625.97754	884.19385	-129.91008	-614.33838	828.76178	-153.94357	-697.09131	832.21655	-110.59709	57.111095	818.93231	-89.94603	-158.01427	819.30914	-289.73883	134.9977	866.05688	-293.53177	16.932146	835.15302	-396.26694
2073	20.72	-338.73761	1340.2748	15.307396	-388.59186	1333.8253	-130.83476	-223.36964	1393.6085	-26.111048	-291.39444	1380.1868	-174.42439	-154.63666	1279.6749	-140.5771	-17.531822	1166.9509	-226.32939	-227.35492	1129.9773	-97.204109	-179.77142	992.39264	-121.75373	-135.81346	1215.9698	-273.97687	-144.8846	1194.756	35.544037	-166.45381	1124.8011	103.20616	-227.6779	937.74396	159.03687	-371.97507	915.88849	181.54904	-432.73074	884.80151	208.68315	-405.00284	824.59698	216.1011	-488.79218	833.81586	258.65811	-313.33841	1190.1635	-238.86287	-435.60455	1027.7834	-241.91957	-476.09857	937.99744	-259.9104	-538.93878	951.06909	-192.30603	-635.01038	886.46698	-127.20152	-623.15552	830.88959	-151.17343	-706.65887	835.3324	-109.01814	55.604881	818.19031	-89.951683	-158.98119	818.28839	-290.2764	133.68427	865.88391	-293.39597	15.989999	834.82745	-396.35602
